<svg width="410" height="212" viewBox="0 0 410 212" fill="none" xmlns="http://www.w3.org/2000/svg">
<g filter="url(#filter0_d_105_111)">
<mask id="path-1-outside-1_105_111" maskUnits="userSpaceOnUse" x="2.96212" y="-1.04335" width="403.894" height="204.816" fill="black">
<rect fill="white" x="2.96212" y="-1.04335" width="403.894" height="204.816"/>
<path d="M37.1023 94.7422C38.214 95.2524 39.3257 95.7627 40.4374 96.273C41.5813 96.7504 42.8391 97.2268 44.2109 97.702C44.4329 97.0814 44.5375 96.1038 44.5248 94.7692C44.5161 93.8578 44.4932 93.1581 44.456 92.6702C44.3019 90.165 44.0053 86.359 43.5661 81.2523C43.1247 75.9177 42.7904 71.575 42.5631 68.2242C42.3359 64.8733 42.2081 61.7006 42.1796 58.7059C42.1709 57.7945 42.1914 56.5247 42.241 54.8965L42.3657 52.6003L35.0808 51.6442C34.6462 50.4439 34.3082 49.1287 34.0667 47.6986C33.8249 46.236 33.6975 44.8211 33.6845 43.454C33.6746 42.4124 33.7451 41.2723 33.8961 40.0339C37.7879 38.4994 42.6928 37.3784 48.6109 36.6711C54.5289 35.9637 60.6453 35.5799 66.9601 35.5198C73.34 35.4591 77.737 35.694 80.151 36.2244L80.1994 36.1752C81.967 37.2001 83.5073 38.2759 84.8201 39.4028C86.1652 40.4968 87.4476 41.8356 88.6671 43.4191C88.6885 45.6651 88.4364 48.2555 87.9109 51.1904C87.4177 54.0923 86.7595 56.768 85.9364 59.2173C85.1459 61.6664 84.316 63.3996 83.4467 64.417C82.6689 64.7825 81.8253 65.0672 80.9157 65.2712C80.0058 65.4426 78.8999 65.5346 77.5979 65.5469C76.2307 65.56 75.1882 65.4722 74.4702 65.2837C73.7848 65.0949 73.033 64.7765 72.2149 64.3286L70.4382 52.0891C69.3619 51.8714 68.0588 51.7699 66.5289 51.7845C65.1618 51.7975 63.7141 51.8926 62.1857 52.0699C62.1026 53.6007 62.0127 56.1245 61.916 59.6412C61.8753 62.2133 61.8014 64.7044 61.6941 67.1144L61.3843 75.6138C69.3174 74.5617 75.9317 73.4733 81.2272 72.3487C82.5475 74.2568 83.222 76.7244 83.2508 79.7516C83.2697 81.7372 83.0275 83.6439 82.524 85.4717C82.0205 87.2995 81.4628 88.5581 80.8509 89.2475C79.8433 89.4199 78.5095 89.514 76.8495 89.5298C74.3756 89.5533 71.7206 89.3507 68.8843 88.9219C66.0803 88.4603 63.4048 87.8184 60.8578 86.9963C60.6901 89.8951 60.4726 92.6968 60.2053 95.4013C59.9369 97.9756 59.5513 100.225 59.0488 102.151C58.5785 104.043 57.8292 105.695 56.8009 107.104C55.4831 108.875 53.7865 110.193 51.7114 111.059C49.6687 111.925 50.876 103.596 48.4998 103.618C46.3189 103.639 40.7491 111.928 38.6237 110.939C36.5309 109.95 34.8057 108.257 33.4482 105.861C33.4606 103.745 33.7029 101.839 34.175 100.141C34.6798 98.4438 35.6555 96.644 37.1023 94.7422Z"/>
<path d="M94.9782 44.6775C94.7323 18.8323 104.765 5.81309 125.077 5.61982C133.117 5.54332 139.399 7.16005 143.923 10.47C148.479 13.7471 151.63 18.2095 153.376 23.8572C155.155 29.4721 156.082 36.2181 156.157 44.0954C156.267 55.6834 153.979 64.9178 149.291 71.7987C144.604 78.6795 143.678 109.631 132.708 109.736C121.674 109.841 106.895 79.0709 102.175 72.3447C97.4888 65.6181 95.0897 56.3957 94.9782 44.6775ZM128.099 66.6778C130.768 66.6524 132.297 66.4914 132.685 66.1947C133.485 64.7547 134.08 62.2587 134.469 58.7067C134.858 55.1221 135.032 51.1164 134.989 46.6895C134.945 42.0347 134.676 37.7239 134.183 33.7571C133.721 29.7574 133.093 26.9638 132.296 25.3762C131.476 24.733 130.267 24.2562 128.669 23.9458C127.071 23.6355 125.312 23.4732 123.391 23.4589C122.284 23.4695 121.276 23.5442 120.366 23.683C119.488 23.7891 118.854 23.9579 118.466 24.1894C117.537 25.8259 116.86 28.1925 116.434 31.2892C116.04 34.3529 115.861 37.8541 115.899 41.7928C115.941 46.2522 116.228 50.693 116.758 55.1153C117.289 59.5375 117.923 62.917 118.661 65.2539C119.122 65.7378 120.281 66.1011 122.139 66.3439C123.997 66.5866 125.983 66.6979 128.099 66.6778Z"/>
<path d="M162.749 44.0327C162.503 18.1875 172.535 5.16824 192.847 4.97497C200.887 4.89847 207.169 6.51521 211.693 9.82518C216.249 13.1023 219.4 17.5647 221.147 23.2124C222.926 28.8272 223.852 35.5733 223.927 43.4505C224.038 55.0385 221.749 64.273 217.062 71.1538C212.374 78.0347 201.292 109.083 190.323 109.187C179.288 109.292 174.665 78.426 169.946 71.6998C165.259 64.9733 162.86 55.7509 162.749 44.0327ZM195.87 66.033C198.539 66.0076 200.067 65.8465 200.455 65.5499C201.255 64.1099 201.85 61.6139 202.239 58.0618C202.628 54.4772 202.802 50.4715 202.76 46.0446C202.715 41.3899 202.447 37.0791 201.953 33.1123C201.492 29.1126 200.863 26.3189 200.067 24.7314C199.247 24.0881 198.038 23.6113 196.44 23.301C194.841 22.9907 193.082 22.8284 191.161 22.8141C190.055 22.8246 189.046 22.8993 188.136 23.0382C187.258 23.1442 186.625 23.313 186.236 23.5446C185.308 25.1811 184.63 27.5477 184.204 30.6443C183.81 33.7081 183.632 37.2093 183.669 41.1479C183.712 45.6074 183.998 50.0482 184.529 54.4704C185.059 58.8927 185.693 62.2722 186.432 64.609C186.892 65.093 188.051 65.4563 189.909 65.699C191.767 65.9418 193.754 66.0531 195.87 66.033Z"/>
<path d="M230.491 98.9355C230.475 97.2754 230.736 95.5639 231.272 93.8009C234.064 92.993 236.681 92.5937 239.123 92.6031C238.444 86.2616 237.857 79.3333 237.362 71.8181C236.867 64.2704 236.508 57.3073 236.285 50.929L236.236 50.9294L229.244 49.9705C228.809 48.7702 228.471 47.4387 228.229 45.9761C227.987 44.5135 227.86 43.0986 227.847 41.7315C227.837 40.6899 227.908 39.5498 228.059 38.3113C231.527 36.7483 236.985 35.6221 244.434 34.9327C251.881 34.2108 259.284 33.8148 266.64 33.7448C271.588 33.6977 275.79 34.0484 279.248 34.7968C282.706 35.5452 285.604 37.2918 287.941 40.0366C290.311 42.7485 291.522 46.8388 291.574 52.3073C291.67 62.4305 289.355 75.7344 284.629 92.2189C283.841 94.9283 282.952 97.362 281.964 99.52C280.975 101.678 279.707 103.546 278.16 105.123C276.839 106.633 275.467 107.785 274.042 108.58C272.649 109.342 270.96 109.733 268.975 109.751C267.966 109.761 266.597 109.611 264.869 109.302C262.716 108.899 260.807 108.381 259.141 107.745C257.474 107.078 256.084 106.407 254.971 105.734C253.89 105.061 252.596 104.21 251.089 103.183C250.447 104.133 249.366 105.185 247.847 106.339C246.361 107.493 244.71 108.485 242.895 109.316C241.08 110.147 239.392 110.603 237.83 110.683C235.576 109.858 233.787 108.377 232.465 106.241C231.175 104.072 230.517 101.637 230.491 98.9355ZM268.024 91.9374C268.893 87.4368 269.559 82.2219 270.024 76.2927C270.488 70.331 270.866 63.898 271.158 56.9939L271.321 53.5254C271.122 53.1692 270.321 52.8187 268.918 52.474C267.547 52.1289 265.739 51.9671 263.493 51.9885L259.684 51.9759C257.861 51.9932 256.397 52.0886 255.292 52.2618C255.305 53.629 255.333 54.7844 255.374 55.728C255.526 61.3909 255.623 66.452 255.665 70.9115C255.714 76.087 255.735 83.4439 255.729 92.9822C259.993 92.9416 264.091 92.5934 268.024 91.9374Z"/>
<path d="M8.47507 161.766C8.22915 135.92 18.262 122.901 38.5736 122.708C46.6136 122.631 52.8955 124.248 57.4194 127.558C61.9755 130.835 65.1268 135.298 66.8734 140.945C68.6521 146.56 69.579 153.306 69.6539 161.184C69.7642 172.772 67.4757 182.006 62.7883 188.887C58.101 195.768 50.2725 199.26 39.303 199.365C28.2683 199.47 20.3914 196.159 15.6722 189.433C10.9856 182.706 8.58657 173.484 8.47507 161.766ZM41.5961 183.766C44.2652 183.741 45.7937 183.58 46.1815 183.283C46.9816 181.843 47.5764 179.347 47.9658 175.795C48.3549 172.21 48.5284 168.204 48.4863 163.778C48.442 159.123 48.1731 154.812 47.6796 150.845C47.2183 146.846 46.5895 144.052 45.7931 142.464C44.9732 141.821 43.7641 141.344 42.1661 141.034C40.568 140.724 38.8085 140.561 36.8877 140.547C35.781 140.558 34.7726 140.632 33.8624 140.771C32.9845 140.877 32.3513 141.046 31.9628 141.278C31.0344 142.914 30.357 145.281 29.9307 148.377C29.5366 151.441 29.3584 154.942 29.3958 158.881C29.4383 163.34 29.7247 167.781 30.2551 172.203C30.7854 176.626 31.4198 180.005 32.1583 182.342C32.6186 182.826 33.7777 183.189 35.6356 183.432C37.4934 183.675 39.4803 183.786 41.5961 183.766Z"/>
<path d="M81.0616 159.219C80.99 151.7 81.0567 145.026 81.2617 139.197L74.6604 138.234C74.2258 137.034 73.8876 135.703 73.6458 134.24C73.404 132.777 73.2766 131.363 73.2636 129.995C73.2537 128.954 73.3242 127.814 73.4752 126.575C77.7251 125.037 83.3461 123.91 90.3383 123.192C97.3305 122.474 104.163 122.084 110.836 122.02C115.816 121.973 120.1 122.323 123.688 123.07C127.276 123.817 130.288 125.563 132.723 128.307C135.19 131.018 136.45 135.107 136.502 140.576C136.523 142.822 136.189 145.315 135.499 148.056C134.808 150.765 133.841 153.476 132.598 156.19C131.449 158.675 130.137 161.047 128.661 163.308C127.217 165.535 125.706 167.454 124.126 169.064C125.093 171.529 126.091 173.782 127.12 175.823C128.148 177.831 129.718 180.274 131.829 183.152L138.637 180.206C141.197 182.362 142.705 185.245 143.163 188.854C143.165 189.05 142.392 189.985 140.846 191.66C139.331 193.334 137.344 194.9 134.884 196.355C132.424 197.779 129.647 198.505 126.555 198.534C124.146 198.557 121.977 198.155 120.049 197.327C118.153 196.498 116.576 195.032 115.319 192.928C114.095 190.856 113.111 188.392 112.368 185.534C111.625 182.676 111.093 179.849 110.774 177.053L99.6366 176.67C99.9538 179.207 100.353 181.823 100.834 184.521C101.316 187.186 101.608 188.794 101.71 189.347C102.294 192.564 102.673 194.758 102.847 195.928C101.359 196.854 99.5425 197.571 97.3988 198.079C95.2877 198.588 93.1254 198.853 90.912 198.874C88.373 198.898 85.9122 198.579 83.5295 197.918C82.7861 195.061 82.2013 190.053 81.7751 182.895C81.3812 175.705 81.1433 167.813 81.0616 159.219ZM111.487 164.79C112.595 161.524 113.457 157.983 114.072 154.169C114.719 150.321 115.294 145.742 115.796 140.431C114.849 140.082 113.61 139.817 112.078 139.636C110.546 139.456 109.064 139.372 107.632 139.386C104.377 139.417 101.936 139.521 100.31 139.699C100.069 151.942 99.7606 160.62 99.3861 165.735L111.487 164.79Z"/>
<path d="M144.02 186.551C144.004 184.891 144.264 183.18 144.801 181.417C147.593 180.609 150.21 180.21 152.651 180.219C151.972 173.877 151.386 166.949 150.891 159.434C150.396 151.886 150.037 144.923 149.813 138.545L149.764 138.545L142.773 137.586C142.338 136.386 142 135.055 141.758 133.592C141.516 132.129 141.389 130.714 141.376 129.347C141.366 128.306 141.436 127.166 141.587 125.927C145.056 124.364 150.514 123.238 157.962 122.549C165.41 121.827 172.812 121.431 180.169 121.361C185.116 121.314 189.319 121.664 192.777 122.413C196.235 123.161 199.132 124.908 201.47 127.652C203.839 130.364 205.05 134.455 205.102 139.923C205.199 150.046 202.884 163.35 198.158 179.835C197.369 182.544 196.481 184.978 195.493 187.136C194.504 189.294 193.236 191.161 191.688 192.739C190.368 194.249 188.995 195.401 187.571 196.196C186.178 196.958 184.489 197.348 182.503 197.367C181.494 197.377 180.126 197.227 178.397 196.918C176.245 196.515 174.336 195.996 172.669 195.361C171.003 194.693 169.613 194.023 168.5 193.35C167.419 192.677 166.125 191.826 164.618 190.799C163.976 191.749 162.895 192.801 161.376 193.955C159.89 195.108 158.239 196.101 156.424 196.932C154.609 197.763 152.92 198.218 151.358 198.298C149.104 197.473 147.316 195.993 145.994 193.857C144.703 191.688 144.045 189.253 144.02 186.551ZM181.553 179.553C182.421 175.053 183.088 169.838 183.552 163.909C184.016 157.947 184.395 151.514 184.687 144.61L184.849 141.141C184.651 140.785 183.85 140.435 182.447 140.09C181.076 139.745 179.268 139.583 177.022 139.604L173.213 139.592C171.39 139.609 169.926 139.704 168.821 139.878C168.834 141.245 168.861 142.4 168.903 143.344C169.054 149.007 169.151 154.068 169.194 158.527C169.243 163.703 169.264 171.06 169.257 180.598C173.521 180.557 177.62 180.209 181.553 179.553Z"/>
<path d="M208.752 184.812C208.725 181.915 209.3 179.094 210.478 176.348C211.032 176.343 211.895 176.449 213.069 176.665C214.276 176.849 215.531 177.098 216.836 177.411C216.558 168.624 216.391 161.415 216.338 155.784C216.271 148.785 216.345 142.811 216.558 137.861L209.029 136.907C208.594 135.707 208.256 134.392 208.015 132.961C207.773 131.499 207.646 130.084 207.633 128.717C207.623 127.675 207.693 126.535 207.844 125.297C211.704 123.795 216.788 122.689 223.096 121.978C229.437 121.234 235.83 120.831 242.275 120.77C248.362 120.712 252.775 120.946 255.515 121.474C257.283 122.531 258.823 123.607 260.136 124.701C261.481 125.763 262.763 127.085 263.982 128.669C264.004 130.948 263.8 133.424 263.369 136.097C262.971 138.738 262.392 141.168 261.632 143.389C260.904 145.61 260.106 147.213 259.236 148.197C258.491 148.563 257.664 148.847 256.754 149.051C255.844 149.223 254.722 149.315 253.387 149.327C252.216 149.339 251.206 149.25 250.357 149.063C249.541 148.843 248.757 148.525 248.004 148.109L246.243 137.481C244.189 137.175 241.746 137.035 238.915 137.062C238.133 137.07 237.353 137.126 236.572 137.231C236.487 141.952 235.881 148.387 234.754 156.536C241.969 155.263 248.129 154.326 253.234 153.724C254.555 155.697 255.229 158.116 255.256 160.98C255.274 162.868 255.031 164.693 254.527 166.456C254.023 168.219 253.465 169.445 252.853 170.134C251.488 170.375 249.861 170.504 247.974 170.522C245.532 170.546 242.991 170.358 240.351 169.96C237.743 169.562 235.295 168.967 233.009 168.174L232.414 172.331C232.045 174.646 231.725 176.927 231.454 179.176L262.343 177.075C262.836 177.526 263.251 178.434 263.59 179.798C263.961 181.162 264.154 182.657 264.17 184.285C264.194 186.889 263.695 189.172 262.672 191.135C261.649 193.098 260.28 194.625 258.565 195.716C256.883 196.773 255.065 197.312 253.112 197.33C251.159 197.349 248.485 196.951 245.092 196.137C241.731 195.29 238.449 194.231 235.247 192.959C232.077 191.687 229.738 190.456 228.229 189.266C226.757 191.884 225.132 193.885 223.354 195.269C221.61 196.653 219.339 197.456 216.541 197.678C215.139 197.464 213.847 196.76 212.663 195.567C211.48 194.373 210.538 192.836 209.836 190.955C209.135 189.073 208.773 187.026 208.752 184.812Z"/>
<path d="M273.826 157.385C273.755 149.866 273.821 143.192 274.026 137.363L267.425 136.4C266.991 135.2 266.652 133.868 266.411 132.406C266.169 130.943 266.041 129.528 266.028 128.161C266.018 127.12 266.089 125.98 266.24 124.741C270.49 123.203 276.111 122.075 283.103 121.358C290.095 120.64 296.928 120.25 303.601 120.186C308.581 120.139 312.865 120.489 316.453 121.236C320.041 121.983 323.053 123.728 325.488 126.472C327.955 129.183 329.215 133.273 329.267 138.742C329.288 140.988 328.954 143.481 328.264 146.222C327.573 148.931 326.606 151.642 325.362 154.356C324.214 156.841 322.902 159.213 321.426 161.474C319.982 163.701 318.47 165.62 316.891 167.23C317.858 169.695 318.856 171.948 319.885 173.989C320.913 175.997 322.483 178.44 324.593 181.317L331.402 178.372C333.961 180.528 401.384 150.019 401.841 153.628C401.843 153.823 335.157 188.151 333.61 189.826C332.096 191.5 330.109 193.065 327.649 194.521C325.188 195.944 322.412 196.671 319.32 196.7C316.911 196.723 314.742 196.321 312.814 195.493C310.918 194.664 309.341 193.198 308.084 191.094C306.86 189.022 305.876 186.557 305.133 183.7C304.389 180.842 303.858 178.015 303.538 175.219L292.401 174.836C292.718 177.372 293.118 179.989 293.599 182.686C294.08 185.351 294.372 186.96 294.475 187.512C295.059 190.73 295.438 192.923 295.612 194.094C294.123 195.019 292.307 195.736 290.164 196.245C288.052 196.754 285.89 197.018 283.677 197.039C281.138 197.064 278.677 196.745 276.294 196.084C275.551 193.227 274.966 188.219 274.54 181.061C274.146 173.871 273.908 165.979 273.826 157.385ZM304.252 162.955C305.36 159.689 306.222 156.149 306.836 152.335C307.483 148.487 308.058 143.908 308.561 138.597C307.614 138.248 306.374 137.983 304.843 137.802C303.311 137.621 301.829 137.538 300.397 137.551C297.142 137.582 294.701 137.687 293.075 137.865C292.833 150.108 292.525 158.786 292.151 163.901L304.252 162.955Z"/>
</mask>
<path d="M37.1023 94.7422C38.214 95.2524 39.3257 95.7627 40.4374 96.273C41.5813 96.7504 42.8391 97.2268 44.2109 97.702C44.4329 97.0814 44.5375 96.1038 44.5248 94.7692C44.5161 93.8578 44.4932 93.1581 44.456 92.6702C44.3019 90.165 44.0053 86.359 43.5661 81.2523C43.1247 75.9177 42.7904 71.575 42.5631 68.2242C42.3359 64.8733 42.2081 61.7006 42.1796 58.7059C42.1709 57.7945 42.1914 56.5247 42.241 54.8965L42.3657 52.6003L35.0808 51.6442C34.6462 50.4439 34.3082 49.1287 34.0667 47.6986C33.8249 46.236 33.6975 44.8211 33.6845 43.454C33.6746 42.4124 33.7451 41.2723 33.8961 40.0339C37.7879 38.4994 42.6928 37.3784 48.6109 36.6711C54.5289 35.9637 60.6453 35.5799 66.9601 35.5198C73.34 35.4591 77.737 35.694 80.151 36.2244L80.1994 36.1752C81.967 37.2001 83.5073 38.2759 84.8201 39.4028C86.1652 40.4968 87.4476 41.8356 88.6671 43.4191C88.6885 45.6651 88.4364 48.2555 87.9109 51.1904C87.4177 54.0923 86.7595 56.768 85.9364 59.2173C85.1459 61.6664 84.316 63.3996 83.4467 64.417C82.6689 64.7825 81.8253 65.0672 80.9157 65.2712C80.0058 65.4426 78.8999 65.5346 77.5979 65.5469C76.2307 65.56 75.1882 65.4722 74.4702 65.2837C73.7848 65.0949 73.033 64.7765 72.2149 64.3286L70.4382 52.0891C69.3619 51.8714 68.0588 51.7699 66.5289 51.7845C65.1618 51.7975 63.7141 51.8926 62.1857 52.0699C62.1026 53.6007 62.0127 56.1245 61.916 59.6412C61.8753 62.2133 61.8014 64.7044 61.6941 67.1144L61.3843 75.6138C69.3174 74.5617 75.9317 73.4733 81.2272 72.3487C82.5475 74.2568 83.222 76.7244 83.2508 79.7516C83.2697 81.7372 83.0275 83.6439 82.524 85.4717C82.0205 87.2995 81.4628 88.5581 80.8509 89.2475C79.8433 89.4199 78.5095 89.514 76.8495 89.5298C74.3756 89.5533 71.7206 89.3507 68.8843 88.9219C66.0803 88.4603 63.4048 87.8184 60.8578 86.9963C60.6901 89.8951 60.4726 92.6968 60.2053 95.4013C59.9369 97.9756 59.5513 100.225 59.0488 102.151C58.5785 104.043 57.8292 105.695 56.8009 107.104C55.4831 108.875 53.7865 110.193 51.7114 111.059C49.6687 111.925 50.876 103.596 48.4998 103.618C46.3189 103.639 40.7491 111.928 38.6237 110.939C36.5309 109.95 34.8057 108.257 33.4482 105.861C33.4606 103.745 33.7029 101.839 34.175 100.141C34.6798 98.4438 35.6555 96.644 37.1023 94.7422Z" fill="#F97316"/>
<path d="M94.9782 44.6775C94.7323 18.8323 104.765 5.81309 125.077 5.61982C133.117 5.54332 139.399 7.16005 143.923 10.47C148.479 13.7471 151.63 18.2095 153.376 23.8572C155.155 29.4721 156.082 36.2181 156.157 44.0954C156.267 55.6834 153.979 64.9178 149.291 71.7987C144.604 78.6795 143.678 109.631 132.708 109.736C121.674 109.841 106.895 79.0709 102.175 72.3447C97.4888 65.6181 95.0897 56.3957 94.9782 44.6775ZM128.099 66.6778C130.768 66.6524 132.297 66.4914 132.685 66.1947C133.485 64.7547 134.08 62.2587 134.469 58.7067C134.858 55.1221 135.032 51.1164 134.989 46.6895C134.945 42.0347 134.676 37.7239 134.183 33.7571C133.721 29.7574 133.093 26.9638 132.296 25.3762C131.476 24.733 130.267 24.2562 128.669 23.9458C127.071 23.6355 125.312 23.4732 123.391 23.4589C122.284 23.4695 121.276 23.5442 120.366 23.683C119.488 23.7891 118.854 23.9579 118.466 24.1894C117.537 25.8259 116.86 28.1925 116.434 31.2892C116.04 34.3529 115.861 37.8541 115.899 41.7928C115.941 46.2522 116.228 50.693 116.758 55.1153C117.289 59.5375 117.923 62.917 118.661 65.2539C119.122 65.7378 120.281 66.1011 122.139 66.3439C123.997 66.5866 125.983 66.6979 128.099 66.6778Z" fill="#F97316"/>
<path d="M162.749 44.0327C162.503 18.1875 172.535 5.16824 192.847 4.97497C200.887 4.89847 207.169 6.51521 211.693 9.82518C216.249 13.1023 219.4 17.5647 221.147 23.2124C222.926 28.8272 223.852 35.5733 223.927 43.4505C224.038 55.0385 221.749 64.273 217.062 71.1538C212.374 78.0347 201.292 109.083 190.323 109.187C179.288 109.292 174.665 78.426 169.946 71.6998C165.259 64.9733 162.86 55.7509 162.749 44.0327ZM195.87 66.033C198.539 66.0076 200.067 65.8465 200.455 65.5499C201.255 64.1099 201.85 61.6139 202.239 58.0618C202.628 54.4772 202.802 50.4715 202.76 46.0446C202.715 41.3899 202.447 37.0791 201.953 33.1123C201.492 29.1126 200.863 26.3189 200.067 24.7314C199.247 24.0881 198.038 23.6113 196.44 23.301C194.841 22.9907 193.082 22.8284 191.161 22.8141C190.055 22.8246 189.046 22.8993 188.136 23.0382C187.258 23.1442 186.625 23.313 186.236 23.5446C185.308 25.1811 184.63 27.5477 184.204 30.6443C183.81 33.7081 183.632 37.2093 183.669 41.1479C183.712 45.6074 183.998 50.0482 184.529 54.4704C185.059 58.8927 185.693 62.2722 186.432 64.609C186.892 65.093 188.051 65.4563 189.909 65.699C191.767 65.9418 193.754 66.0531 195.87 66.033Z" fill="#F97316"/>
<path d="M230.491 98.9355C230.475 97.2754 230.736 95.5639 231.272 93.8009C234.064 92.993 236.681 92.5937 239.123 92.6031C238.444 86.2616 237.857 79.3333 237.362 71.8181C236.867 64.2704 236.508 57.3073 236.285 50.929L236.236 50.9294L229.244 49.9705C228.809 48.7702 228.471 47.4387 228.229 45.9761C227.987 44.5135 227.86 43.0986 227.847 41.7315C227.837 40.6899 227.908 39.5498 228.059 38.3113C231.527 36.7483 236.985 35.6221 244.434 34.9327C251.881 34.2108 259.284 33.8148 266.64 33.7448C271.588 33.6977 275.79 34.0484 279.248 34.7968C282.706 35.5452 285.604 37.2918 287.941 40.0366C290.311 42.7485 291.522 46.8388 291.574 52.3073C291.67 62.4305 289.355 75.7344 284.629 92.2189C283.841 94.9283 282.952 97.362 281.964 99.52C280.975 101.678 279.707 103.546 278.16 105.123C276.839 106.633 275.467 107.785 274.042 108.58C272.649 109.342 270.96 109.733 268.975 109.751C267.966 109.761 266.597 109.611 264.869 109.302C262.716 108.899 260.807 108.381 259.141 107.745C257.474 107.078 256.084 106.407 254.971 105.734C253.89 105.061 252.596 104.21 251.089 103.183C250.447 104.133 249.366 105.185 247.847 106.339C246.361 107.493 244.71 108.485 242.895 109.316C241.08 110.147 239.392 110.603 237.83 110.683C235.576 109.858 233.787 108.377 232.465 106.241C231.175 104.072 230.517 101.637 230.491 98.9355ZM268.024 91.9374C268.893 87.4368 269.559 82.2219 270.024 76.2927C270.488 70.331 270.866 63.898 271.158 56.9939L271.321 53.5254C271.122 53.1692 270.321 52.8187 268.918 52.474C267.547 52.1289 265.739 51.9671 263.493 51.9885L259.684 51.9759C257.861 51.9932 256.397 52.0886 255.292 52.2618C255.305 53.629 255.333 54.7844 255.374 55.728C255.526 61.3909 255.623 66.452 255.665 70.9115C255.714 76.087 255.735 83.4439 255.729 92.9822C259.993 92.9416 264.091 92.5934 268.024 91.9374Z" fill="#F97316"/>
<path d="M8.47507 161.766C8.22915 135.92 18.262 122.901 38.5736 122.708C46.6136 122.631 52.8955 124.248 57.4194 127.558C61.9755 130.835 65.1268 135.298 66.8734 140.945C68.6521 146.56 69.579 153.306 69.6539 161.184C69.7642 172.772 67.4757 182.006 62.7883 188.887C58.101 195.768 50.2725 199.26 39.303 199.365C28.2683 199.47 20.3914 196.159 15.6722 189.433C10.9856 182.706 8.58657 173.484 8.47507 161.766ZM41.5961 183.766C44.2652 183.741 45.7937 183.58 46.1815 183.283C46.9816 181.843 47.5764 179.347 47.9658 175.795C48.3549 172.21 48.5284 168.204 48.4863 163.778C48.442 159.123 48.1731 154.812 47.6796 150.845C47.2183 146.846 46.5895 144.052 45.7931 142.464C44.9732 141.821 43.7641 141.344 42.1661 141.034C40.568 140.724 38.8085 140.561 36.8877 140.547C35.781 140.558 34.7726 140.632 33.8624 140.771C32.9845 140.877 32.3513 141.046 31.9628 141.278C31.0344 142.914 30.357 145.281 29.9307 148.377C29.5366 151.441 29.3584 154.942 29.3958 158.881C29.4383 163.34 29.7247 167.781 30.2551 172.203C30.7854 176.626 31.4198 180.005 32.1583 182.342C32.6186 182.826 33.7777 183.189 35.6356 183.432C37.4934 183.675 39.4803 183.786 41.5961 183.766Z" fill="#F97316"/>
<path d="M81.0616 159.219C80.99 151.7 81.0567 145.026 81.2617 139.197L74.6604 138.234C74.2258 137.034 73.8876 135.703 73.6458 134.24C73.404 132.777 73.2766 131.363 73.2636 129.995C73.2537 128.954 73.3242 127.814 73.4752 126.575C77.7251 125.037 83.3461 123.91 90.3383 123.192C97.3305 122.474 104.163 122.084 110.836 122.02C115.816 121.973 120.1 122.323 123.688 123.07C127.276 123.817 130.288 125.563 132.723 128.307C135.19 131.018 136.45 135.107 136.502 140.576C136.523 142.822 136.189 145.315 135.499 148.056C134.808 150.765 133.841 153.476 132.598 156.19C131.449 158.675 130.137 161.047 128.661 163.308C127.217 165.535 125.706 167.454 124.126 169.064C125.093 171.529 126.091 173.782 127.12 175.823C128.148 177.831 129.718 180.274 131.829 183.152L138.637 180.206C141.197 182.362 142.705 185.245 143.163 188.854C143.165 189.05 142.392 189.985 140.846 191.66C139.331 193.334 137.344 194.9 134.884 196.355C132.424 197.779 129.647 198.505 126.555 198.534C124.146 198.557 121.977 198.155 120.049 197.327C118.153 196.498 116.576 195.032 115.319 192.928C114.095 190.856 113.111 188.392 112.368 185.534C111.625 182.676 111.093 179.849 110.774 177.053L99.6366 176.67C99.9538 179.207 100.353 181.823 100.834 184.521C101.316 187.186 101.608 188.794 101.71 189.347C102.294 192.564 102.673 194.758 102.847 195.928C101.359 196.854 99.5425 197.571 97.3988 198.079C95.2877 198.588 93.1254 198.853 90.912 198.874C88.373 198.898 85.9122 198.579 83.5295 197.918C82.7861 195.061 82.2013 190.053 81.7751 182.895C81.3812 175.705 81.1433 167.813 81.0616 159.219ZM111.487 164.79C112.595 161.524 113.457 157.983 114.072 154.169C114.719 150.321 115.294 145.742 115.796 140.431C114.849 140.082 113.61 139.817 112.078 139.636C110.546 139.456 109.064 139.372 107.632 139.386C104.377 139.417 101.936 139.521 100.31 139.699C100.069 151.942 99.7606 160.62 99.3861 165.735L111.487 164.79Z" fill="#F97316"/>
<path d="M144.02 186.551C144.004 184.891 144.264 183.18 144.801 181.417C147.593 180.609 150.21 180.21 152.651 180.219C151.972 173.877 151.386 166.949 150.891 159.434C150.396 151.886 150.037 144.923 149.813 138.545L149.764 138.545L142.773 137.586C142.338 136.386 142 135.055 141.758 133.592C141.516 132.129 141.389 130.714 141.376 129.347C141.366 128.306 141.436 127.166 141.587 125.927C145.056 124.364 150.514 123.238 157.962 122.549C165.41 121.827 172.812 121.431 180.169 121.361C185.116 121.314 189.319 121.664 192.777 122.413C196.235 123.161 199.132 124.908 201.47 127.652C203.839 130.364 205.05 134.455 205.102 139.923C205.199 150.046 202.884 163.35 198.158 179.835C197.369 182.544 196.481 184.978 195.493 187.136C194.504 189.294 193.236 191.161 191.688 192.739C190.368 194.249 188.995 195.401 187.571 196.196C186.178 196.958 184.489 197.348 182.503 197.367C181.494 197.377 180.126 197.227 178.397 196.918C176.245 196.515 174.336 195.996 172.669 195.361C171.003 194.693 169.613 194.023 168.5 193.35C167.419 192.677 166.125 191.826 164.618 190.799C163.976 191.749 162.895 192.801 161.376 193.955C159.89 195.108 158.239 196.101 156.424 196.932C154.609 197.763 152.92 198.218 151.358 198.298C149.104 197.473 147.316 195.993 145.994 193.857C144.703 191.688 144.045 189.253 144.02 186.551ZM181.553 179.553C182.421 175.053 183.088 169.838 183.552 163.909C184.016 157.947 184.395 151.514 184.687 144.61L184.849 141.141C184.651 140.785 183.85 140.435 182.447 140.09C181.076 139.745 179.268 139.583 177.022 139.604L173.213 139.592C171.39 139.609 169.926 139.704 168.821 139.878C168.834 141.245 168.861 142.4 168.903 143.344C169.054 149.007 169.151 154.068 169.194 158.527C169.243 163.703 169.264 171.06 169.257 180.598C173.521 180.557 177.62 180.209 181.553 179.553Z" fill="#F97316"/>
<path d="M208.752 184.812C208.725 181.915 209.3 179.094 210.478 176.348C211.032 176.343 211.895 176.449 213.069 176.665C214.276 176.849 215.531 177.098 216.836 177.411C216.558 168.624 216.391 161.415 216.338 155.784C216.271 148.785 216.345 142.811 216.558 137.861L209.029 136.907C208.594 135.707 208.256 134.392 208.015 132.961C207.773 131.499 207.646 130.084 207.633 128.717C207.623 127.675 207.693 126.535 207.844 125.297C211.704 123.795 216.788 122.689 223.096 121.978C229.437 121.234 235.83 120.831 242.275 120.77C248.362 120.712 252.775 120.946 255.515 121.474C257.283 122.531 258.823 123.607 260.136 124.701C261.481 125.763 262.763 127.085 263.982 128.669C264.004 130.948 263.8 133.424 263.369 136.097C262.971 138.738 262.392 141.168 261.632 143.389C260.904 145.61 260.106 147.213 259.236 148.197C258.491 148.563 257.664 148.847 256.754 149.051C255.844 149.223 254.722 149.315 253.387 149.327C252.216 149.339 251.206 149.25 250.357 149.063C249.541 148.843 248.757 148.525 248.004 148.109L246.243 137.481C244.189 137.175 241.746 137.035 238.915 137.062C238.133 137.07 237.353 137.126 236.572 137.231C236.487 141.952 235.881 148.387 234.754 156.536C241.969 155.263 248.129 154.326 253.234 153.724C254.555 155.697 255.229 158.116 255.256 160.98C255.274 162.868 255.031 164.693 254.527 166.456C254.023 168.219 253.465 169.445 252.853 170.134C251.488 170.375 249.861 170.504 247.974 170.522C245.532 170.546 242.991 170.358 240.351 169.96C237.743 169.562 235.295 168.967 233.009 168.174L232.414 172.331C232.045 174.646 231.725 176.927 231.454 179.176L262.343 177.075C262.836 177.526 263.251 178.434 263.59 179.798C263.961 181.162 264.154 182.657 264.17 184.285C264.194 186.889 263.695 189.172 262.672 191.135C261.649 193.098 260.28 194.625 258.565 195.716C256.883 196.773 255.065 197.312 253.112 197.33C251.159 197.349 248.485 196.951 245.092 196.137C241.731 195.29 238.449 194.231 235.247 192.959C232.077 191.687 229.738 190.456 228.229 189.266C226.757 191.884 225.132 193.885 223.354 195.269C221.61 196.653 219.339 197.456 216.541 197.678C215.139 197.464 213.847 196.76 212.663 195.567C211.48 194.373 210.538 192.836 209.836 190.955C209.135 189.073 208.773 187.026 208.752 184.812Z" fill="#F97316"/>
<path d="M273.826 157.385C273.755 149.866 273.821 143.192 274.026 137.363L267.425 136.4C266.991 135.2 266.652 133.868 266.411 132.406C266.169 130.943 266.041 129.528 266.028 128.161C266.018 127.12 266.089 125.98 266.24 124.741C270.49 123.203 276.111 122.075 283.103 121.358C290.095 120.64 296.928 120.25 303.601 120.186C308.581 120.139 312.865 120.489 316.453 121.236C320.041 121.983 323.053 123.728 325.488 126.472C327.955 129.183 329.215 133.273 329.267 138.742C329.288 140.988 328.954 143.481 328.264 146.222C327.573 148.931 326.606 151.642 325.362 154.356C324.214 156.841 322.902 159.213 321.426 161.474C319.982 163.701 318.47 165.62 316.891 167.23C317.858 169.695 318.856 171.948 319.885 173.989C320.913 175.997 322.483 178.44 324.593 181.317L331.402 178.372C333.961 180.528 401.384 150.019 401.841 153.628C401.843 153.823 335.157 188.151 333.61 189.826C332.096 191.5 330.109 193.065 327.649 194.521C325.188 195.944 322.412 196.671 319.32 196.7C316.911 196.723 314.742 196.321 312.814 195.493C310.918 194.664 309.341 193.198 308.084 191.094C306.86 189.022 305.876 186.557 305.133 183.7C304.389 180.842 303.858 178.015 303.538 175.219L292.401 174.836C292.718 177.372 293.118 179.989 293.599 182.686C294.08 185.351 294.372 186.96 294.475 187.512C295.059 190.73 295.438 192.923 295.612 194.094C294.123 195.019 292.307 195.736 290.164 196.245C288.052 196.754 285.89 197.018 283.677 197.039C281.138 197.064 278.677 196.745 276.294 196.084C275.551 193.227 274.966 188.219 274.54 181.061C274.146 173.871 273.908 165.979 273.826 157.385ZM304.252 162.955C305.36 159.689 306.222 156.149 306.836 152.335C307.483 148.487 308.058 143.908 308.561 138.597C307.614 138.248 306.374 137.983 304.843 137.802C303.311 137.621 301.829 137.538 300.397 137.551C297.142 137.582 294.701 137.687 293.075 137.865C292.833 150.108 292.525 158.786 292.151 163.901L304.252 162.955Z" fill="#F97316"/>
<path d="M37.1023 94.7422C38.214 95.2524 39.3257 95.7627 40.4374 96.273C41.5813 96.7504 42.8391 97.2268 44.2109 97.702C44.4329 97.0814 44.5375 96.1038 44.5248 94.7692C44.5161 93.8578 44.4932 93.1581 44.456 92.6702C44.3019 90.165 44.0053 86.359 43.5661 81.2523C43.1247 75.9177 42.7904 71.575 42.5631 68.2242C42.3359 64.8733 42.2081 61.7006 42.1796 58.7059C42.1709 57.7945 42.1914 56.5247 42.241 54.8965L42.3657 52.6003L35.0808 51.6442C34.6462 50.4439 34.3082 49.1287 34.0667 47.6986C33.8249 46.236 33.6975 44.8211 33.6845 43.454C33.6746 42.4124 33.7451 41.2723 33.8961 40.0339C37.7879 38.4994 42.6928 37.3784 48.6109 36.6711C54.5289 35.9637 60.6453 35.5799 66.9601 35.5198C73.34 35.4591 77.737 35.694 80.151 36.2244L80.1994 36.1752C81.967 37.2001 83.5073 38.2759 84.8201 39.4028C86.1652 40.4968 87.4476 41.8356 88.6671 43.4191C88.6885 45.6651 88.4364 48.2555 87.9109 51.1904C87.4177 54.0923 86.7595 56.768 85.9364 59.2173C85.1459 61.6664 84.316 63.3996 83.4467 64.417C82.6689 64.7825 81.8253 65.0672 80.9157 65.2712C80.0058 65.4426 78.8999 65.5346 77.5979 65.5469C76.2307 65.56 75.1882 65.4722 74.4702 65.2837C73.7848 65.0949 73.033 64.7765 72.2149 64.3286L70.4382 52.0891C69.3619 51.8714 68.0588 51.7699 66.5289 51.7845C65.1618 51.7975 63.7141 51.8926 62.1857 52.0699C62.1026 53.6007 62.0127 56.1245 61.916 59.6412C61.8753 62.2133 61.8014 64.7044 61.6941 67.1144L61.3843 75.6138C69.3174 74.5617 75.9317 73.4733 81.2272 72.3487C82.5475 74.2568 83.222 76.7244 83.2508 79.7516C83.2697 81.7372 83.0275 83.6439 82.524 85.4717C82.0205 87.2995 81.4628 88.5581 80.8509 89.2475C79.8433 89.4199 78.5095 89.514 76.8495 89.5298C74.3756 89.5533 71.7206 89.3507 68.8843 88.9219C66.0803 88.4603 63.4048 87.8184 60.8578 86.9963C60.6901 89.8951 60.4726 92.6968 60.2053 95.4013C59.9369 97.9756 59.5513 100.225 59.0488 102.151C58.5785 104.043 57.8292 105.695 56.8009 107.104C55.4831 108.875 53.7865 110.193 51.7114 111.059C49.6687 111.925 50.876 103.596 48.4998 103.618C46.3189 103.639 40.7491 111.928 38.6237 110.939C36.5309 109.95 34.8057 108.257 33.4482 105.861C33.4606 103.745 33.7029 101.839 34.175 100.141C34.6798 98.4438 35.6555 96.644 37.1023 94.7422Z" stroke="black" stroke-width="8" mask="url(#path-1-outside-1_105_111)"/>
<path d="M94.9782 44.6775C94.7323 18.8323 104.765 5.81309 125.077 5.61982C133.117 5.54332 139.399 7.16005 143.923 10.47C148.479 13.7471 151.63 18.2095 153.376 23.8572C155.155 29.4721 156.082 36.2181 156.157 44.0954C156.267 55.6834 153.979 64.9178 149.291 71.7987C144.604 78.6795 143.678 109.631 132.708 109.736C121.674 109.841 106.895 79.0709 102.175 72.3447C97.4888 65.6181 95.0897 56.3957 94.9782 44.6775ZM128.099 66.6778C130.768 66.6524 132.297 66.4914 132.685 66.1947C133.485 64.7547 134.08 62.2587 134.469 58.7067C134.858 55.1221 135.032 51.1164 134.989 46.6895C134.945 42.0347 134.676 37.7239 134.183 33.7571C133.721 29.7574 133.093 26.9638 132.296 25.3762C131.476 24.733 130.267 24.2562 128.669 23.9458C127.071 23.6355 125.312 23.4732 123.391 23.4589C122.284 23.4695 121.276 23.5442 120.366 23.683C119.488 23.7891 118.854 23.9579 118.466 24.1894C117.537 25.8259 116.86 28.1925 116.434 31.2892C116.04 34.3529 115.861 37.8541 115.899 41.7928C115.941 46.2522 116.228 50.693 116.758 55.1153C117.289 59.5375 117.923 62.917 118.661 65.2539C119.122 65.7378 120.281 66.1011 122.139 66.3439C123.997 66.5866 125.983 66.6979 128.099 66.6778Z" stroke="black" stroke-width="8" mask="url(#path-1-outside-1_105_111)"/>
<path d="M162.749 44.0327C162.503 18.1875 172.535 5.16824 192.847 4.97497C200.887 4.89847 207.169 6.51521 211.693 9.82518C216.249 13.1023 219.4 17.5647 221.147 23.2124C222.926 28.8272 223.852 35.5733 223.927 43.4505C224.038 55.0385 221.749 64.273 217.062 71.1538C212.374 78.0347 201.292 109.083 190.323 109.187C179.288 109.292 174.665 78.426 169.946 71.6998C165.259 64.9733 162.86 55.7509 162.749 44.0327ZM195.87 66.033C198.539 66.0076 200.067 65.8465 200.455 65.5499C201.255 64.1099 201.85 61.6139 202.239 58.0618C202.628 54.4772 202.802 50.4715 202.76 46.0446C202.715 41.3899 202.447 37.0791 201.953 33.1123C201.492 29.1126 200.863 26.3189 200.067 24.7314C199.247 24.0881 198.038 23.6113 196.44 23.301C194.841 22.9907 193.082 22.8284 191.161 22.8141C190.055 22.8246 189.046 22.8993 188.136 23.0382C187.258 23.1442 186.625 23.313 186.236 23.5446C185.308 25.1811 184.63 27.5477 184.204 30.6443C183.81 33.7081 183.632 37.2093 183.669 41.1479C183.712 45.6074 183.998 50.0482 184.529 54.4704C185.059 58.8927 185.693 62.2722 186.432 64.609C186.892 65.093 188.051 65.4563 189.909 65.699C191.767 65.9418 193.754 66.0531 195.87 66.033Z" stroke="black" stroke-width="8" mask="url(#path-1-outside-1_105_111)"/>
<path d="M230.491 98.9355C230.475 97.2754 230.736 95.5639 231.272 93.8009C234.064 92.993 236.681 92.5937 239.123 92.6031C238.444 86.2616 237.857 79.3333 237.362 71.8181C236.867 64.2704 236.508 57.3073 236.285 50.929L236.236 50.9294L229.244 49.9705C228.809 48.7702 228.471 47.4387 228.229 45.9761C227.987 44.5135 227.86 43.0986 227.847 41.7315C227.837 40.6899 227.908 39.5498 228.059 38.3113C231.527 36.7483 236.985 35.6221 244.434 34.9327C251.881 34.2108 259.284 33.8148 266.64 33.7448C271.588 33.6977 275.79 34.0484 279.248 34.7968C282.706 35.5452 285.604 37.2918 287.941 40.0366C290.311 42.7485 291.522 46.8388 291.574 52.3073C291.67 62.4305 289.355 75.7344 284.629 92.2189C283.841 94.9283 282.952 97.362 281.964 99.52C280.975 101.678 279.707 103.546 278.16 105.123C276.839 106.633 275.467 107.785 274.042 108.58C272.649 109.342 270.96 109.733 268.975 109.751C267.966 109.761 266.597 109.611 264.869 109.302C262.716 108.899 260.807 108.381 259.141 107.745C257.474 107.078 256.084 106.407 254.971 105.734C253.89 105.061 252.596 104.21 251.089 103.183C250.447 104.133 249.366 105.185 247.847 106.339C246.361 107.493 244.71 108.485 242.895 109.316C241.08 110.147 239.392 110.603 237.83 110.683C235.576 109.858 233.787 108.377 232.465 106.241C231.175 104.072 230.517 101.637 230.491 98.9355ZM268.024 91.9374C268.893 87.4368 269.559 82.2219 270.024 76.2927C270.488 70.331 270.866 63.898 271.158 56.9939L271.321 53.5254C271.122 53.1692 270.321 52.8187 268.918 52.474C267.547 52.1289 265.739 51.9671 263.493 51.9885L259.684 51.9759C257.861 51.9932 256.397 52.0886 255.292 52.2618C255.305 53.629 255.333 54.7844 255.374 55.728C255.526 61.3909 255.623 66.452 255.665 70.9115C255.714 76.087 255.735 83.4439 255.729 92.9822C259.993 92.9416 264.091 92.5934 268.024 91.9374Z" stroke="black" stroke-width="8" mask="url(#path-1-outside-1_105_111)"/>
<path d="M8.47507 161.766C8.22915 135.92 18.262 122.901 38.5736 122.708C46.6136 122.631 52.8955 124.248 57.4194 127.558C61.9755 130.835 65.1268 135.298 66.8734 140.945C68.6521 146.56 69.579 153.306 69.6539 161.184C69.7642 172.772 67.4757 182.006 62.7883 188.887C58.101 195.768 50.2725 199.26 39.303 199.365C28.2683 199.47 20.3914 196.159 15.6722 189.433C10.9856 182.706 8.58657 173.484 8.47507 161.766ZM41.5961 183.766C44.2652 183.741 45.7937 183.58 46.1815 183.283C46.9816 181.843 47.5764 179.347 47.9658 175.795C48.3549 172.21 48.5284 168.204 48.4863 163.778C48.442 159.123 48.1731 154.812 47.6796 150.845C47.2183 146.846 46.5895 144.052 45.7931 142.464C44.9732 141.821 43.7641 141.344 42.1661 141.034C40.568 140.724 38.8085 140.561 36.8877 140.547C35.781 140.558 34.7726 140.632 33.8624 140.771C32.9845 140.877 32.3513 141.046 31.9628 141.278C31.0344 142.914 30.357 145.281 29.9307 148.377C29.5366 151.441 29.3584 154.942 29.3958 158.881C29.4383 163.34 29.7247 167.781 30.2551 172.203C30.7854 176.626 31.4198 180.005 32.1583 182.342C32.6186 182.826 33.7777 183.189 35.6356 183.432C37.4934 183.675 39.4803 183.786 41.5961 183.766Z" stroke="black" stroke-width="8" mask="url(#path-1-outside-1_105_111)"/>
<path d="M81.0616 159.219C80.99 151.7 81.0567 145.026 81.2617 139.197L74.6604 138.234C74.2258 137.034 73.8876 135.703 73.6458 134.24C73.404 132.777 73.2766 131.363 73.2636 129.995C73.2537 128.954 73.3242 127.814 73.4752 126.575C77.7251 125.037 83.3461 123.91 90.3383 123.192C97.3305 122.474 104.163 122.084 110.836 122.02C115.816 121.973 120.1 122.323 123.688 123.07C127.276 123.817 130.288 125.563 132.723 128.307C135.19 131.018 136.45 135.107 136.502 140.576C136.523 142.822 136.189 145.315 135.499 148.056C134.808 150.765 133.841 153.476 132.598 156.19C131.449 158.675 130.137 161.047 128.661 163.308C127.217 165.535 125.706 167.454 124.126 169.064C125.093 171.529 126.091 173.782 127.12 175.823C128.148 177.831 129.718 180.274 131.829 183.152L138.637 180.206C141.197 182.362 142.705 185.245 143.163 188.854C143.165 189.05 142.392 189.985 140.846 191.66C139.331 193.334 137.344 194.9 134.884 196.355C132.424 197.779 129.647 198.505 126.555 198.534C124.146 198.557 121.977 198.155 120.049 197.327C118.153 196.498 116.576 195.032 115.319 192.928C114.095 190.856 113.111 188.392 112.368 185.534C111.625 182.676 111.093 179.849 110.774 177.053L99.6366 176.67C99.9538 179.207 100.353 181.823 100.834 184.521C101.316 187.186 101.608 188.794 101.71 189.347C102.294 192.564 102.673 194.758 102.847 195.928C101.359 196.854 99.5425 197.571 97.3988 198.079C95.2877 198.588 93.1254 198.853 90.912 198.874C88.373 198.898 85.9122 198.579 83.5295 197.918C82.7861 195.061 82.2013 190.053 81.7751 182.895C81.3812 175.705 81.1433 167.813 81.0616 159.219ZM111.487 164.79C112.595 161.524 113.457 157.983 114.072 154.169C114.719 150.321 115.294 145.742 115.796 140.431C114.849 140.082 113.61 139.817 112.078 139.636C110.546 139.456 109.064 139.372 107.632 139.386C104.377 139.417 101.936 139.521 100.31 139.699C100.069 151.942 99.7606 160.62 99.3861 165.735L111.487 164.79Z" stroke="black" stroke-width="8" mask="url(#path-1-outside-1_105_111)"/>
<path d="M144.02 186.551C144.004 184.891 144.264 183.18 144.801 181.417C147.593 180.609 150.21 180.21 152.651 180.219C151.972 173.877 151.386 166.949 150.891 159.434C150.396 151.886 150.037 144.923 149.813 138.545L149.764 138.545L142.773 137.586C142.338 136.386 142 135.055 141.758 133.592C141.516 132.129 141.389 130.714 141.376 129.347C141.366 128.306 141.436 127.166 141.587 125.927C145.056 124.364 150.514 123.238 157.962 122.549C165.41 121.827 172.812 121.431 180.169 121.361C185.116 121.314 189.319 121.664 192.777 122.413C196.235 123.161 199.132 124.908 201.47 127.652C203.839 130.364 205.05 134.455 205.102 139.923C205.199 150.046 202.884 163.35 198.158 179.835C197.369 182.544 196.481 184.978 195.493 187.136C194.504 189.294 193.236 191.161 191.688 192.739C190.368 194.249 188.995 195.401 187.571 196.196C186.178 196.958 184.489 197.348 182.503 197.367C181.494 197.377 180.126 197.227 178.397 196.918C176.245 196.515 174.336 195.996 172.669 195.361C171.003 194.693 169.613 194.023 168.5 193.35C167.419 192.677 166.125 191.826 164.618 190.799C163.976 191.749 162.895 192.801 161.376 193.955C159.89 195.108 158.239 196.101 156.424 196.932C154.609 197.763 152.92 198.218 151.358 198.298C149.104 197.473 147.316 195.993 145.994 193.857C144.703 191.688 144.045 189.253 144.02 186.551ZM181.553 179.553C182.421 175.053 183.088 169.838 183.552 163.909C184.016 157.947 184.395 151.514 184.687 144.61L184.849 141.141C184.651 140.785 183.85 140.435 182.447 140.09C181.076 139.745 179.268 139.583 177.022 139.604L173.213 139.592C171.39 139.609 169.926 139.704 168.821 139.878C168.834 141.245 168.861 142.4 168.903 143.344C169.054 149.007 169.151 154.068 169.194 158.527C169.243 163.703 169.264 171.06 169.257 180.598C173.521 180.557 177.62 180.209 181.553 179.553Z" stroke="black" stroke-width="8" mask="url(#path-1-outside-1_105_111)"/>
<path d="M208.752 184.812C208.725 181.915 209.3 179.094 210.478 176.348C211.032 176.343 211.895 176.449 213.069 176.665C214.276 176.849 215.531 177.098 216.836 177.411C216.558 168.624 216.391 161.415 216.338 155.784C216.271 148.785 216.345 142.811 216.558 137.861L209.029 136.907C208.594 135.707 208.256 134.392 208.015 132.961C207.773 131.499 207.646 130.084 207.633 128.717C207.623 127.675 207.693 126.535 207.844 125.297C211.704 123.795 216.788 122.689 223.096 121.978C229.437 121.234 235.83 120.831 242.275 120.77C248.362 120.712 252.775 120.946 255.515 121.474C257.283 122.531 258.823 123.607 260.136 124.701C261.481 125.763 262.763 127.085 263.982 128.669C264.004 130.948 263.8 133.424 263.369 136.097C262.971 138.738 262.392 141.168 261.632 143.389C260.904 145.61 260.106 147.213 259.236 148.197C258.491 148.563 257.664 148.847 256.754 149.051C255.844 149.223 254.722 149.315 253.387 149.327C252.216 149.339 251.206 149.25 250.357 149.063C249.541 148.843 248.757 148.525 248.004 148.109L246.243 137.481C244.189 137.175 241.746 137.035 238.915 137.062C238.133 137.07 237.353 137.126 236.572 137.231C236.487 141.952 235.881 148.387 234.754 156.536C241.969 155.263 248.129 154.326 253.234 153.724C254.555 155.697 255.229 158.116 255.256 160.98C255.274 162.868 255.031 164.693 254.527 166.456C254.023 168.219 253.465 169.445 252.853 170.134C251.488 170.375 249.861 170.504 247.974 170.522C245.532 170.546 242.991 170.358 240.351 169.96C237.743 169.562 235.295 168.967 233.009 168.174L232.414 172.331C232.045 174.646 231.725 176.927 231.454 179.176L262.343 177.075C262.836 177.526 263.251 178.434 263.59 179.798C263.961 181.162 264.154 182.657 264.17 184.285C264.194 186.889 263.695 189.172 262.672 191.135C261.649 193.098 260.28 194.625 258.565 195.716C256.883 196.773 255.065 197.312 253.112 197.33C251.159 197.349 248.485 196.951 245.092 196.137C241.731 195.29 238.449 194.231 235.247 192.959C232.077 191.687 229.738 190.456 228.229 189.266C226.757 191.884 225.132 193.885 223.354 195.269C221.61 196.653 219.339 197.456 216.541 197.678C215.139 197.464 213.847 196.76 212.663 195.567C211.48 194.373 210.538 192.836 209.836 190.955C209.135 189.073 208.773 187.026 208.752 184.812Z" stroke="black" stroke-width="8" mask="url(#path-1-outside-1_105_111)"/>
<path d="M273.826 157.385C273.755 149.866 273.821 143.192 274.026 137.363L267.425 136.4C266.991 135.2 266.652 133.868 266.411 132.406C266.169 130.943 266.041 129.528 266.028 128.161C266.018 127.12 266.089 125.98 266.24 124.741C270.49 123.203 276.111 122.075 283.103 121.358C290.095 120.64 296.928 120.25 303.601 120.186C308.581 120.139 312.865 120.489 316.453 121.236C320.041 121.983 323.053 123.728 325.488 126.472C327.955 129.183 329.215 133.273 329.267 138.742C329.288 140.988 328.954 143.481 328.264 146.222C327.573 148.931 326.606 151.642 325.362 154.356C324.214 156.841 322.902 159.213 321.426 161.474C319.982 163.701 318.47 165.62 316.891 167.23C317.858 169.695 318.856 171.948 319.885 173.989C320.913 175.997 322.483 178.44 324.593 181.317L331.402 178.372C333.961 180.528 401.384 150.019 401.841 153.628C401.843 153.823 335.157 188.151 333.61 189.826C332.096 191.5 330.109 193.065 327.649 194.521C325.188 195.944 322.412 196.671 319.32 196.7C316.911 196.723 314.742 196.321 312.814 195.493C310.918 194.664 309.341 193.198 308.084 191.094C306.86 189.022 305.876 186.557 305.133 183.7C304.389 180.842 303.858 178.015 303.538 175.219L292.401 174.836C292.718 177.372 293.118 179.989 293.599 182.686C294.08 185.351 294.372 186.96 294.475 187.512C295.059 190.73 295.438 192.923 295.612 194.094C294.123 195.019 292.307 195.736 290.164 196.245C288.052 196.754 285.89 197.018 283.677 197.039C281.138 197.064 278.677 196.745 276.294 196.084C275.551 193.227 274.966 188.219 274.54 181.061C274.146 173.871 273.908 165.979 273.826 157.385ZM304.252 162.955C305.36 159.689 306.222 156.149 306.836 152.335C307.483 148.487 308.058 143.908 308.561 138.597C307.614 138.248 306.374 137.983 304.843 137.802C303.311 137.621 301.829 137.538 300.397 137.551C297.142 137.582 294.701 137.687 293.075 137.865C292.833 150.108 292.525 158.786 292.151 163.901L304.252 162.955Z" stroke="black" stroke-width="8" mask="url(#path-1-outside-1_105_111)"/>
</g>
<defs>
<filter id="filter0_d_105_111" x="0.470673" y="0.972382" width="409.37" height="210.395" filterUnits="userSpaceOnUse" color-interpolation-filters="sRGB">
<feFlood flood-opacity="0" result="BackgroundImageFix"/>
<feColorMatrix in="SourceAlpha" type="matrix" values="0 0 0 0 0 0 0 0 0 0 0 0 0 0 0 0 0 0 127 0" result="hardAlpha"/>
<feOffset dy="4"/>
<feGaussianBlur stdDeviation="2"/>
<feComposite in2="hardAlpha" operator="out"/>
<feColorMatrix type="matrix" values="0 0 0 0 0 0 0 0 0 0 0 0 0 0 0 0 0 0 0.25 0"/>
<feBlend mode="normal" in2="BackgroundImageFix" result="effect1_dropShadow_105_111"/>
<feBlend mode="normal" in="SourceGraphic" in2="effect1_dropShadow_105_111" result="shape"/>
</filter>
</defs>
</svg>
